<?xml version="1.0" standalone="no"?><!DOCTYPE svg PUBLIC "-//W3C//DTD SVG 1.1//EN" "http://www.w3.org/Graphics/SVG/1.1/DTD/svg11.dtd"><svg t="1665993300158" class="icon" viewBox="0 0 1024 1024" version="1.1" xmlns="http://www.w3.org/2000/svg" p-id="2212" xmlns:xlink="http://www.w3.org/1999/xlink" width="32" height="32"><path d="M954.06592 738.9952a215.07072 215.07072 0 1 0-215.07072 215.07072 215.07072 215.07072 0 0 0 215.07072-215.07072z" fill="#F4CA1C" p-id="2213"></path><path d="M514.56 952.32a437.76 437.76 0 1 1 437.76-437.76 438.272 438.272 0 0 1-437.76 437.76z m0-804.91008a367.1552 367.1552 0 1 0 367.1552 367.15008 367.56992 367.56992 0 0 0-367.1552-367.15008z m0 603.75552A220.99968 220.99968 0 0 1 293.8112 530.432a35.328 35.328 0 0 1 70.6048 0 150.144 150.144 0 1 0 300.28288 0 35.328 35.328 0 0 1 70.60992 0 221.0048 221.0048 0 0 1-220.7488 220.73344zM376.64256 369.78688a42.36288 42.36288 0 1 1-42.36288-42.36288 42.36288 42.36288 0 0 1 42.36288 42.36288z m356.56192 0a42.368 42.368 0 1 1-42.36288-42.36288 42.36288 42.36288 0 0 1 42.3424 42.36288z" fill="#595BB3" p-id="2214"></path></svg>